# xmcd
#
# Track frame offsets:
#	150
#	18945
#	38057
#	57407
#	72305
#	87025
#	104522
#	123082
#	135112
#	157462
#	173077
#	190260
#	208607
#	225317
#	246310
#	260622
#	290157
#
# Disc length: 3882 seconds
#
# Revision: 1
# Processed by: cddbd v1.5.2PL0 Copyright (c) Steve Scherf et al.
# Submitted via: audiograbber 1.83.01
#
DISCID=ef0f2811
DTITLE=Various Karaoke - MH1129
DYEAR=2002
DGENRE=Karaoke
TTITLE0=Kellie Coffey - When You Lie Next To Me
TTITLE1=Jo Dee Messina and Tim McGraw - Bring On The Rain
TTITLE2=Sara Evans - I Keep Looking
TTITLE3=Chely Wright - Jezebal
TTITLE4=Jamie O'Neal - Frantic
TTITLE5=Dixie Chicks - Long Time Gone
TTITLE6=Carolyn Dawn Johnson - I Don't Want You To Go
TTITLE7=Dixie Chicks - Some Days You Gotta Dance
TTITLE8=Matina McBride - Where Would You Be
TTITLE9=Jo Dee Messina - Dare To Dream
TTITLE10=Garth Brooks and Trisha Yearwood - Squeeze Me In
TTITLE11=Rebecca Lynn Howard - Forgive
TTITLE12=Tammy Cochran - I Cry
TTITLE13=Tammy Cochran - Life Happened
TTITLE14=Cyndi Thomson - I Always Liked That Best
TTITLE15=Lee Ann Womack - Something Worth Leaving Behind
TTITLE16=Data - Data Track
EXTD=
EXTT0=
EXTT1=
EXTT2=
EXTT3=
EXTT4=
EXTT5=
EXTT6=
EXTT7=
EXTT8=
EXTT9=
EXTT10=
EXTT11=
EXTT12=
EXTT13=
EXTT14=
EXTT15=
EXTT16=
PLAYORDER=
